<svg xmlns="http://www.w3.org/2000/svg" width="23.665" height="24" viewBox="0 0 23.665 24"><g transform="translate(-66 -165)"><path d="M12,0h1.132l.034,0h.2l.015,0h.2l.033,0h.2l.023,0h.018l.01,0h.009l.01,0H13.9l.01,0h.009l.009,0h.009l.01,0,.009,0,.01,0,.009,0,.01,0,.009,0,.01,0,.009,0,.01,0,.009,0h0l.033.006h.008l.009,0,.01,0,.009,0,.009,0,.009,0,.009,0,.01,0,.009,0,.009,0,.009,0,.009,0,.009,0L14.2.2l.01,0,.009,0,.009,0,.009,0,.009,0,.009,0,.009,0h0l.022,0,.008,0,.009,0,.009,0,.009,0,.009,0,.009,0,.009,0,.009,0,.01,0,.009,0,.009,0,.009,0,.009,0,.009,0,.009,0,.009,0,.009,0,.009,0,.009,0,.009,0h0l.032.007.008,0,.009,0,.009,0,.009,0,.009,0,.009,0,.009,0,.009,0,.009,0,.009,0,.009,0,.009,0,.009,0,.009,0,.009,0,.009,0,.009,0,.009,0,.009,0,.009,0,.009,0h0l.018,0,.009,0,.009,0,.009,0,.009,0,.009,0,.009,0,.009,0,.009,0,.009,0,.009,0,.009,0,.009,0,.009,0,.009,0,.009,0,.009,0,.009,0,.009,0,.009,0,.009,0,.009,0,.018,0,.009,0,.009,0,.009,0,.009,0,.009,0,.009,0,.009,0,.009,0,.009,0,.009,0,.009,0,.009,0,.009,0,.009,0,.009,0,.009,0,.009,0L15.1.4l.009,0,.009,0,.01,0h0l.028.007.009,0,.009,0,.009,0,.009,0,.009,0,.009,0,.009,0,.009,0,.009,0,.009,0,.009,0,.009,0,.009,0,.009,0,.009,0,.009,0,.01,0,.009,0,.01,0h0l.009,0,.037.011.009,0,.009,0,.009,0,.009,0,.009,0,.009,0,.009,0,.009,0,.009,0,.009,0,.009,0,.009,0,.009,0,.009,0,.01,0,.01,0h0l.092.029h0l.009,0,.009,0,.009,0,.009,0,.009,0,.009,0,.009,0,.009,0,.008,0h0l.009,0,.009,0,.009,0h0l.127.042h0L15.9.647h0q.49.168.96.377l-.405.914A10.918,10.918,0,0,0,12,1V0Zm9.523,4.7.115.152h0l0,.006h0l0,.006h0l0,.006v0l0,.006v0l0,.006v0l0,.006v0l0,.006v0l0,.006v0l0,.006h0l.021.028h0l0,.006v0l0,.005,0,0,0,0,0,0,0,0,0,0,0,0,0,0,0,0,0,0,0,0,0,0,0,0,0,0,0,0,0,0,0,0,0,0,0,0,0,.006v0l.017.023h0l0,.006v0l0,.006,0,0,0,.005,0,0,0,.005,0,0,0,.005,0,0,0,.005,0,0,0,.006v0l0,.006v0l0,.007h0l0,.007h0l.033.047h0l.005.007h0l0,.007h0l0,.007h0l0,.007h0l.005.008h0a11.94,11.94,0,0,1,1.762,3.954l-.972.235a10.89,10.89,0,0,0-1.964-4.1Zm1.1,10.157.966.259a11.93,11.93,0,0,1-1.164,2.829h0l0,.008h0l0,.008h0l-.045.078h0l0,.008h0l0,.007h0l0,.007h0l0,.007h0l0,.007h0l0,.007h0l-.036.061h0l0,.007h0l0,.006v0l0,.006v0l0,.006v0l0,.006v0l0,.006v0l0,.006h0l0,.007h0l-.023.038h0l0,.006v0l0,.006v0l0,.006v0l0,.006v0l0,.006,0,0,0,.006v0l0,.006v0l0,.006v0l0,.005,0,0,0,.006h0l0,.006h0l-.014.022h0l0,.006,0,0,0,.005,0,0,0,0,0,0,0,0,0,0,0,0,0,0,0,0,0,0,0,0,0,0,0,0,0,0,0,0,0,0,0,0,0,0,0,0,0,0,0,0,0,0,0,.007,0,0,0,0,0,0,0,0,0,0,0,0,0,0,0,0,0,0,0,0,0,0,0,0,0,0,0,0,0,0,0,0,0,0,0,0,0,0,0,0,0,0,0,0,0,0,0,0,0,0,0,0,0,.006,0,0,0,.006,0,0,0,.005,0,0,0,.005,0,0,0,0,0,0,0,0,0,0,0,0,0,0,0,0,0,0,0,0,0,0,0,.005,0,0,0,.006,0,0,0,.006v0l0,.006v0l-.016.024h0l-.005.008h0l0,.007h0l0,.006v0l0,.006v0l0,.006v0l0,.006v0l0,.006v0l0,.006v0l0,.006v0l0,.007h0l-.027.04h0l0,.007h0l0,.007h0l0,.007h0l0,.007h0l0,.006h0l0,.006h0l0,.007h0l-.005.008h0l-.039.055h0l-.005.008h0l-.005.007h0l-.005.007h0l-.005.007h0l-.005.007h0l-.056.078h0l-.005.007h0l-.005.007h0q-.177.242-.365.475l-.778-.628A10.9,10.9,0,0,0,22.626,14.854ZM16.2,22.169l.382.924a11.916,11.916,0,0,1-2.866.785l-.018,0h-.166l-.221.026H13l-.018,0h0l-.073.006H11.855L11.7,24l.024-1c.09,0,.182,0,.272,0A10.936,10.936,0,0,0,16.2,22.169ZM3.107,18.476A11.138,11.138,0,0,0,6.49,21.523l-.5.865a12.054,12.054,0,0,1-2.921-2.375h0l-.006-.007h0L3.055,20h0l-.005-.006h0l-.005-.006h0l-.005-.006h0l-.006-.006h0L3,19.94H3L3,19.933v0l0-.006,0,0,0,0,0,0,0,0,0,0,0,0,0,0,0,0,0,0,0,0,0,0,0,0,0,0,0-.005,0,0-.006-.006h0l-.006-.007,0,0,0,0,0,0,0,0,0,0,0,0,0,0,0,0,0,0,0,0,0,0,0,0,0,0,0,0,0,0,0,0,0,0,0,0,0-.005h0l-.028-.033h0l0-.006h0l0-.005v0l0-.005h0l0-.006h0l0-.006h0l0-.006h0q-.265-.316-.509-.65ZM.488,8.6l.959.283A11.014,11.014,0,0,0,1,12a11.158,11.158,0,0,0,.091,1.423L.1,13.551c-.012-.092-.023-.184-.032-.277h0l0-.018h0v-.009h0v-.233h0v-.006h0v-.012h0v-.017h0v-.017h0l0-.048h0l0-.03h0c0-.028,0-.056-.006-.085h0l0-.048h0v-.018h0V12.71h0l0-.03h0v-.018h0v-.018h0v-.012h0v-.018h0v-.018h0v-.017h0v-.011h0v-.379H0v-.047H0v-.047H0v-.019H0v-.019H0V12.02H0s0-.006,0-.008,0,0,0,0S0,12,0,12H0s0-.006,0-.009v0s0,0,0-.007v0s0-.005,0-.009v-.02H0V11.9H0v-.018H0v-.029H0v-.018H0v-.029H0v-.018H0v-.029H0v-.018H0V11.71H0v-.018H0v-.018H0v-.009H0v-.037h0v-.009h0V11.6h0v-.018h0v-.008h0v-.018h0v-.028h0v-.009h0v-.008h0v-.018h0v-.009h0v-.009h0v-.028h0v-.009h0v-.009h0v-.008h0v-.018h0v-.009h0v-.009h0v-.009h0v-.019h0v-.019h0v-.009h0V11.3h0l0-.028h0v-.019h0A11.964,11.964,0,0,1,.488,8.6ZM7.691.8l.359.933A10.94,10.94,0,0,0,4.234,4.21L3.528,3.5a12.064,12.064,0,0,1,1.418-1.21h0l.008-.006h0l.008-.006h0l.007-.005h0l.007-.005h0l.008-.005h0l.055-.04h0l.007-.005h0l.007-.005h0l.007,0h0l.007,0h0l.006,0h0l.007,0h0L5.1,2.184h0l.039-.028h0l.006,0h0l.006,0h0l.006,0h0l.006,0,0,0,.006,0h0l.005,0,0,0,.005,0,0,0,.006,0,0,0,.006,0h0l.016-.011h0l.006,0,0,0,.005,0,0,0,.005,0,0,0,0,0,0,0,0,0,0,0,0,0,0,0,0,0,0,0,0,0,0,0,0,0,0,0,0,0,0,0,0,0,0,0,.007,0,.006,0,0,0,0,0,0,0,0,0,.008-.005,0,0,0,0,0,0,0,0,0,0,0,0,0,0,.005,0,0,0,.005,0h0l.006,0h0l.006,0h0l.037-.024h0l.007,0h0l.007,0h0l.006,0h0l.006,0h0l.006,0h0l.006,0h0l.007,0h0l.007,0h0l.053-.034h0l.007,0h0l.007,0h0l.007,0h0l.007,0h0A11.957,11.957,0,0,1,7.691.8Z" transform="translate(66 165)" fill="#faeaea"/><circle cx="6" cy="6" r="6" transform="translate(72 171)" fill="#ef4a62"/></g></svg>