<svg xmlns="http://www.w3.org/2000/svg" width="32.6" height="36" viewBox="0 0 32.6 36"><g transform="translate(-3.5 -2)"><path d="M7.9,5H31.7a4.4,4.4,0,0,1,4.4,4.4V33.2a4.4,4.4,0,0,1-4.4,4.4H7.9a4.4,4.4,0,0,1-4.4-4.4V9.4A4.4,4.4,0,0,1,7.9,5ZM31.7,35.6a2.4,2.4,0,0,0,2.4-2.4V9.4A2.4,2.4,0,0,0,31.7,7H7.9A2.4,2.4,0,0,0,5.5,9.4V33.2a2.4,2.4,0,0,0,2.4,2.4Z" transform="translate(0 0.4)" fill="#687bb9"/><path d="M24,10.8a1,1,0,0,1-1-1V3a1,1,0,0,1,2,0V9.8A1,1,0,0,1,24,10.8Z" transform="translate(2.6)" fill="#687bb9"/><path d="M12,10.8a1,1,0,0,1-1-1V3a1,1,0,0,1,2,0V9.8A1,1,0,0,1,12,10.8Z" transform="translate(1)" fill="#687bb9"/><path d="M35.1,16H4.5a1,1,0,0,1,0-2H35.1a1,1,0,0,1,0,2Z" transform="translate(0 1.6)" fill="#687bb9"/></g></svg>