<svg version="1.1" id="Layer_1" xmlns="http://www.w3.org/2000/svg" xmlns:xlink="http://www.w3.org/1999/xlink" x="0px" y="0px"
	 width="100%" viewBox="0 0 93 88" enable-background="new 0 0 93 88" xml:space="preserve">
<path fill="#F9F9F9" opacity="1.000000" stroke="none" 
	d="
M64.000000,89.000000 
	C42.666672,89.000000 21.833342,89.000000 1.000008,89.000000 
	C1.000006,59.666676 1.000006,30.333351 1.000003,1.000020 
	C31.999985,1.000013 62.999969,1.000013 93.999969,1.000007 
	C93.999977,30.333313 93.999977,59.666626 93.999985,88.999969 
	C84.166664,89.000000 74.333336,89.000000 64.000000,89.000000 
M72.760605,10.305481 
	C69.969788,10.430121 67.178978,10.554761 63.746826,11.013869 
	C62.044853,13.387678 63.566051,13.756840 65.515846,13.855085 
	C67.777847,13.969061 70.040031,14.079310 72.608223,15.055587 
	C72.608223,19.640844 72.608223,24.226103 72.608223,29.090813 
	C52.087414,29.090813 31.978243,29.090813 11.810780,28.145523 
	C11.810780,23.562397 11.810780,18.979271 11.810780,14.286767 
	C15.526701,14.014015 18.552683,13.791905 22.353230,13.512942 
	C19.941875,8.077800 15.861739,9.578090 12.691305,9.773796 
	C9.375976,9.978447 7.402925,12.108949 7.415109,15.809870 
	C7.472119,33.126198 7.463948,50.442883 7.421369,67.759293 
	C7.411059,71.952393 9.417237,73.815765 13.532413,73.793526 
	C21.857414,73.748512 30.185419,73.887375 38.505600,73.682701 
	C39.919300,73.647926 41.300179,72.278801 42.696220,71.526146 
	C41.266224,70.747108 39.855412,69.338974 38.403008,69.294685 
	C30.917225,69.066383 23.417530,69.058838 15.929553,69.247147 
	C12.679535,69.328880 11.559921,68.263214 11.627213,64.977936 
	C11.807893,56.156860 11.858506,47.324928 11.612027,38.507057 
	C11.503108,34.610451 12.677173,33.351990 16.668915,33.400352 
	C33.649952,33.606083 50.636127,33.394485 67.616829,33.613708 
	C69.735039,33.641056 71.831825,35.327969 74.787376,36.395267 
	C75.416702,35.077053 76.514671,33.784554 76.588669,32.435867 
	C76.823242,28.160658 76.806686,23.858654 76.617165,19.578970 
	C76.529381,17.596813 75.816536,15.642336 75.261688,13.721935 
	C75.261688,13.721935 75.337997,13.612060 75.220314,13.028218 
	C74.520897,12.332369 73.821487,11.636519 72.760605,10.305481 
M77.954674,43.332764 
	C76.653267,42.814949 75.351868,42.297134 73.402710,41.759674 
	C72.978363,41.685482 72.554016,41.611294 71.882690,40.976795 
	C70.543617,41.153168 69.204552,41.329536 67.006096,41.676048 
	C64.648712,41.691872 62.291332,41.707695 59.497311,41.330467 
	C58.329769,42.216301 57.162228,43.102135 55.632679,44.531540 
	C53.739727,46.344894 51.846775,48.158245 49.387386,50.007591 
	C49.214939,50.663593 49.042492,51.319595 48.859730,52.562534 
	C48.541088,53.026146 48.222446,53.489761 47.132721,54.161587 
	C46.780403,58.804909 46.354012,63.445210 46.164433,68.095169 
	C46.139191,68.714188 47.315437,69.382179 48.198868,70.491074 
	C48.300533,70.830627 48.402203,71.170174 48.252537,72.235229 
	C49.133244,73.503693 50.013954,74.772148 51.290424,76.516098 
	C52.181618,77.370422 53.072815,78.224747 54.066277,79.762840 
	C59.215305,85.099648 65.601799,85.878517 72.335480,84.199173 
	C74.451996,83.671318 76.212395,81.715569 78.752182,80.111137 
	C80.548386,78.431786 82.344597,76.752426 84.825111,74.932037 
	C85.793770,72.175629 86.762428,69.419220 87.944954,65.833473 
	C88.041008,63.537914 88.137062,61.242359 88.640823,58.448856 
	C87.344788,51.980659 85.225136,46.116425 77.998627,43.998459 
	C77.998627,43.998459 78.022324,43.968555 77.954674,43.332764 
M59.335327,9.825197 
	C59.322083,8.835709 59.633244,7.677087 59.224792,6.893642 
	C58.484665,5.474019 57.315678,4.277983 56.325722,2.988607 
	C55.018593,4.050036 52.745922,4.983012 52.584435,6.196855 
	C52.089565,9.916655 52.034836,13.801981 52.611355,17.497770 
	C52.806099,18.746178 55.398262,19.620604 56.894775,20.665943 
	C57.706848,19.326805 58.919819,18.074024 59.231506,16.627096 
	C59.639069,14.735113 59.333961,12.689609 59.335327,9.825197 
M24.942776,11.499912 
	C24.948212,13.663806 24.664637,15.885513 25.081049,17.967197 
	C25.289160,19.007565 26.651340,20.159838 27.739748,20.528313 
	C28.240145,20.697720 30.005743,19.140530 30.052076,18.302908 
	C30.290716,13.988814 30.287712,9.646756 30.042057,5.333082 
	C29.994305,4.494541 28.300608,2.964619 27.710430,3.113990 
	C26.650988,3.382131 25.365339,4.539781 25.060436,5.584399 
	C24.612684,7.118422 24.943846,8.879795 24.942776,11.499912 
M35.419682,10.092299 
	C33.113884,11.552640 32.116127,13.246206 35.769009,13.717854 
	C39.360126,14.181528 43.064262,13.938504 46.703346,13.732521 
	C47.517513,13.686437 48.267284,12.502707 49.046703,11.842733 
	C48.264370,11.195059 47.511223,10.035216 46.694630,9.988673 
	C43.222046,9.790749 39.730656,9.922663 35.419682,10.092299 
M31.342094,52.288837 
	C33.478035,52.311470 35.639935,52.533421 37.737362,52.260292 
	C38.596748,52.148384 39.316883,50.967102 40.100365,50.272289 
	C39.303215,49.646904 38.569832,48.619286 37.695507,48.480671 
	C35.928017,48.200451 33.962719,48.029240 32.322296,48.562088 
	C31.490383,48.832317 31.187607,50.731525 31.342094,52.288837 
M36.993336,41.938122 
	C38.100079,41.232315 39.206821,40.526512 40.313568,39.820709 
	C39.179939,39.179150 38.105278,38.362484 36.893070,37.954269 
	C36.005032,37.655216 34.864681,37.662991 33.964966,37.944160 
	C32.597988,38.371361 31.342125,39.154110 30.039062,39.785831 
	C31.252399,40.507607 32.411003,41.360561 33.700932,41.898766 
	C34.401802,42.191181 35.325989,41.948357 36.993336,41.938122 
M33.632748,62.973835 
	C35.870399,62.247093 38.108055,61.520351 40.345707,60.793606 
	C38.040340,60.178196 35.735619,59.560337 33.428162,58.952869 
	C33.274582,58.912441 33.059238,58.887196 32.942009,58.962662 
	C31.971739,59.587273 31.017836,60.237309 30.058979,60.879646 
	C30.961374,61.575520 31.863771,62.271397 33.632748,62.973835 
M52.914383,40.597706 
	C53.129787,40.010006 53.345192,39.422310 53.560600,38.834606 
	C50.448021,38.752468 47.335438,38.670326 44.222858,38.588188 
	C44.667564,39.684032 45.064091,41.692245 45.565262,41.718708 
	C47.804676,41.836956 50.073940,41.389820 52.914383,40.597706 
M24.466135,48.959057 
	C22.371401,48.790894 20.253529,48.389748 18.195786,48.594086 
	C17.564236,48.656799 17.097307,50.377274 16.554995,51.338623 
	C18.406034,51.707836 20.295170,52.468781 22.093302,52.293915 
	C23.111740,52.194885 23.980852,50.560257 24.466135,48.959057 
M25.093666,61.410629 
	C24.369719,56.968227 20.911800,59.507996 18.700518,59.067764 
	C18.025337,58.933342 17.071167,60.200260 16.244766,60.825417 
	C17.143259,61.544537 18.006353,62.807281 18.947680,62.868576 
	C20.853804,62.992687 22.802322,62.465672 25.093666,61.410629 
M18.839777,37.902885 
	C17.973995,38.652161 17.108213,39.401432 16.242434,40.150707 
	C17.100935,40.743061 17.888063,41.552261 18.838558,41.865124 
	C19.739891,42.161797 20.909012,42.201565 21.785952,41.879459 
	C22.970842,41.444241 23.989050,40.555225 25.078775,39.860916 
	C23.953293,39.204544 22.869518,38.452961 21.684000,37.933643 
	C21.126106,37.689259 20.372616,37.891392 18.839777,37.902885 
z"/>
<path fill="#73BF6E" opacity="1.000000" stroke="none" 
	d="
M59.933945,41.723518 
	C62.291332,41.707695 64.648712,41.691872 67.844048,41.758148 
	C69.831223,41.739201 70.980446,41.638149 72.129669,41.537102 
	C72.554016,41.611294 72.978363,41.685482 73.844284,42.104546 
	C75.531342,42.955795 76.776833,43.462173 78.022324,43.968555 
	C78.022324,43.968555 77.998627,43.998459 78.113037,44.309250 
	C81.562675,49.395630 84.897888,54.171215 88.233109,58.946800 
	C88.137062,61.242359 88.041008,63.537914 87.521103,66.403923 
	C86.111771,69.673943 85.126289,72.373512 84.140808,75.073074 
	C82.344597,76.752426 80.548386,78.431786 78.078583,80.162605 
	C71.423714,83.822212 65.308746,84.237236 58.984772,81.096100 
	C57.374512,80.296265 55.640930,79.744698 53.964012,79.079063 
	C53.072815,78.224747 52.181618,77.370422 51.138378,75.929398 
	C50.158844,74.065041 49.331356,72.787384 48.503868,71.509727 
	C48.402203,71.170174 48.300533,70.830627 48.072815,69.789818 
	C47.932438,64.043503 47.918118,58.998436 47.903801,53.953373 
	C48.222446,53.489761 48.541088,53.026146 49.119396,52.102905 
	C49.570648,51.086052 49.762234,50.528824 49.953823,49.971596 
	C51.846775,48.158245 53.739727,46.344894 56.170418,44.264458 
	C57.783417,43.239422 58.858681,42.481468 59.933945,41.723518 
M59.112659,61.033039 
	C55.314262,63.383541 58.543438,64.995247 59.946663,66.257729 
	C61.655968,67.795593 62.987709,71.680473 66.247238,68.920486 
	C69.657860,66.032570 72.700523,62.689861 75.722130,59.379898 
	C76.320770,58.724133 76.561371,56.683762 76.153511,56.382187 
	C75.241196,55.707611 73.745117,55.356365 72.621552,55.572823 
	C71.621017,55.765575 70.584518,56.744057 69.940659,57.645020 
	C67.355247,61.262794 64.185272,62.771740 59.112659,61.033039 
z"/>
<path fill="#808080" opacity="1.000000" stroke="none" 
	d="
M73.938538,36.245911 
	C71.831825,35.327969 69.735039,33.641056 67.616829,33.613708 
	C50.636127,33.394485 33.649952,33.606083 16.668915,33.400352 
	C12.677173,33.351990 11.503108,34.610451 11.612027,38.507057 
	C11.858506,47.324928 11.807893,56.156860 11.627213,64.977936 
	C11.559921,68.263214 12.679535,69.328880 15.929553,69.247147 
	C23.417530,69.058838 30.917225,69.066383 38.403008,69.294685 
	C39.855412,69.338974 41.266224,70.747108 42.696220,71.526146 
	C41.300179,72.278801 39.919300,73.647926 38.505600,73.682701 
	C30.185419,73.887375 21.857414,73.748512 13.532413,73.793526 
	C9.417237,73.815765 7.411059,71.952393 7.421369,67.759293 
	C7.463948,50.442883 7.472119,33.126198 7.415109,15.809870 
	C7.402925,12.108949 9.375976,9.978447 12.691305,9.773796 
	C15.861739,9.578090 19.941875,8.077800 22.353230,13.512942 
	C18.552683,13.791905 15.526701,14.014015 11.810780,14.286767 
	C11.810780,18.979271 11.810780,23.562397 11.612770,28.717079 
	C11.414761,29.288637 10.925671,29.368456 10.737424,28.972988 
	C10.549177,23.849535 10.549177,19.121550 10.549177,14.393564 
	C10.156715,14.394212 9.764255,14.394859 9.371793,14.395507 
	C9.371793,32.661446 9.371793,50.927380 9.371793,69.193321 
	C10.198352,59.808056 10.127557,50.403973 10.240173,41.002083 
	C10.275356,38.064777 10.805569,35.133404 11.568610,32.151299 
	C31.118624,32.073811 50.209892,31.971106 69.298492,32.151524 
	C70.854683,32.166233 72.392601,34.114445 73.948013,35.434654 
	C73.950859,35.885357 73.944695,36.065632 73.938538,36.245911 
M26.497152,72.146561 
	C31.071583,72.146561 35.646011,72.146561 40.220444,72.146561 
	C40.216206,71.819565 40.211971,71.492569 40.207733,71.165573 
	C30.740017,71.165573 21.272297,71.165573 11.804579,71.165573 
	C11.799923,71.492432 11.795268,71.819298 11.790612,72.146156 
	C16.361477,72.146156 20.932341,72.146156 26.497152,72.146561 
z"/>
<path fill="#474747" opacity="1.000000" stroke="none" 
	d="
M10.925671,29.368456 
	C10.925671,29.368456 11.414761,29.288637 11.641916,29.189724 
	C31.978243,29.090813 52.087414,29.090813 72.608223,29.090813 
	C72.608223,24.226103 72.608223,19.640844 72.966278,14.550779 
	C73.995552,13.901334 74.666771,13.756697 75.337997,13.612061 
	C75.337997,13.612060 75.261688,13.721935 75.225922,14.184382 
	C75.167442,17.801023 75.286522,20.964308 75.085091,24.107048 
	C74.848274,27.802082 74.333344,31.479292 73.939011,35.164230 
	C72.392601,34.114445 70.854683,32.166233 69.298492,32.151524 
	C50.209892,31.971106 31.118624,32.073811 11.533625,31.792915 
	C11.001360,30.777851 10.963515,30.073154 10.925671,29.368456 
z"/>
<path fill="#525252" opacity="1.000000" stroke="none" 
	d="
M59.335388,10.267673 
	C59.333961,12.689609 59.639069,14.735113 59.231506,16.627096 
	C58.919819,18.074024 57.706848,19.326805 56.894775,20.665943 
	C55.398262,19.620604 52.806099,18.746178 52.611355,17.497770 
	C52.034836,13.801981 52.089565,9.916655 52.584435,6.196855 
	C52.745922,4.983012 55.018593,4.050036 56.325722,2.988608 
	C57.315678,4.277983 58.484665,5.474019 59.224792,6.893642 
	C59.633244,7.677087 59.322083,8.835709 59.335388,10.267673 
z"/>
<path fill="#515151" opacity="1.000000" stroke="none" 
	d="
M24.942963,11.022109 
	C24.943846,8.879795 24.612684,7.118422 25.060436,5.584399 
	C25.365339,4.539781 26.650988,3.382131 27.710430,3.113990 
	C28.300608,2.964619 29.994305,4.494541 30.042057,5.333082 
	C30.287712,9.646756 30.290716,13.988814 30.052076,18.302908 
	C30.005743,19.140530 28.240145,20.697720 27.739748,20.528313 
	C26.651340,20.159838 25.289160,19.007565 25.081049,17.967197 
	C24.664637,15.885513 24.948212,13.663806 24.942963,11.022109 
z"/>
<path fill="#6B6B6B" opacity="1.000000" stroke="none" 
	d="
M35.832909,10.013218 
	C39.730656,9.922663 43.222046,9.790749 46.694630,9.988673 
	C47.511223,10.035216 48.264370,11.195059 49.046703,11.842733 
	C48.267284,12.502707 47.517513,13.686437 46.703346,13.732521 
	C43.064262,13.938504 39.360126,14.181528 35.769009,13.717854 
	C32.116127,13.246206 33.113884,11.552640 35.832909,10.013218 
z"/>
<path fill="#D0EDCE" opacity="1.000000" stroke="none" 
	d="
M54.015144,79.420952 
	C55.640930,79.744698 57.374512,80.296265 58.984772,81.096100 
	C65.308746,84.237236 71.423714,83.822212 77.770386,80.313721 
	C76.212395,81.715569 74.451996,83.671318 72.335480,84.199173 
	C65.601799,85.878517 59.215305,85.099648 54.015144,79.420952 
z"/>
<path fill="#5E5E5E" opacity="1.000000" stroke="none" 
	d="
M30.993855,52.091560 
	C31.187607,50.731525 31.490383,48.832317 32.322296,48.562088 
	C33.962719,48.029240 35.928017,48.200451 37.695507,48.480671 
	C38.569832,48.619286 39.303215,49.646904 40.100365,50.272289 
	C39.316883,50.967102 38.596748,52.148384 37.737362,52.260292 
	C35.639935,52.533421 33.478035,52.311470 30.993855,52.091560 
z"/>
<path fill="#6F6F6F" opacity="1.000000" stroke="none" 
	d="
M73.948013,35.434654 
	C74.333344,31.479292 74.848274,27.802082 75.085091,24.107048 
	C75.286522,20.964308 75.167442,17.801023 75.288620,14.161070 
	C75.816536,15.642336 76.529381,17.596813 76.617165,19.578970 
	C76.806686,23.858654 76.823242,28.160658 76.588669,32.435867 
	C76.514671,33.784554 75.416702,35.077053 74.362961,36.320587 
	C73.944695,36.065632 73.950859,35.885357 73.948013,35.434654 
z"/>
<path fill="#717171" opacity="1.000000" stroke="none" 
	d="
M36.571392,41.942539 
	C35.325989,41.948357 34.401802,42.191181 33.700932,41.898766 
	C32.411003,41.360561 31.252399,40.507607 30.039062,39.785831 
	C31.342125,39.154110 32.597988,38.371361 33.964966,37.944160 
	C34.864681,37.662991 36.005032,37.655216 36.893070,37.954269 
	C38.105278,38.362484 39.179939,39.179150 40.313568,39.820709 
	C39.206821,40.526512 38.100079,41.232315 36.571392,41.942539 
z"/>
<path fill="#6D6E6D" opacity="1.000000" stroke="none" 
	d="
M33.199455,62.970551 
	C31.863771,62.271397 30.961374,61.575520 30.058979,60.879646 
	C31.017836,60.237309 31.971739,59.587273 32.942009,58.962662 
	C33.059238,58.887196 33.274582,58.912441 33.428162,58.952869 
	C35.735619,59.560337 38.040340,60.178196 40.345707,60.793606 
	C38.108055,61.520351 35.870399,62.247093 33.199455,62.970551 
z"/>
<path fill="#727272" opacity="1.000000" stroke="none" 
	d="
M52.623405,40.872284 
	C50.073940,41.389820 47.804676,41.836956 45.565262,41.718708 
	C45.064091,41.692245 44.667564,39.684032 44.222858,38.588188 
	C47.335438,38.670326 50.448021,38.752468 53.560600,38.834610 
	C53.345192,39.422310 53.129787,40.010006 52.623405,40.872284 
z"/>
<path fill="#5B5B5B" opacity="1.000000" stroke="none" 
	d="
M24.691677,49.288155 
	C23.980852,50.560257 23.111740,52.194885 22.093302,52.293915 
	C20.295170,52.468781 18.406034,51.707836 16.554995,51.338623 
	C17.097307,50.377274 17.564236,48.656799 18.195786,48.594086 
	C20.253529,48.389748 22.371401,48.790894 24.691677,49.288155 
z"/>
<path fill="#D0EDCE" opacity="1.000000" stroke="none" 
	d="
M88.436966,58.697830 
	C84.897888,54.171215 81.562675,49.395630 78.127563,44.297901 
	C85.225136,46.116425 87.344788,51.980659 88.436966,58.697830 
z"/>
<path fill="#727272" opacity="1.000000" stroke="none" 
	d="
M24.913513,61.808876 
	C22.802322,62.465672 20.853804,62.992687 18.947680,62.868576 
	C18.006353,62.807281 17.143259,61.544537 16.244766,60.825417 
	C17.071167,60.200260 18.025337,58.933342 18.700518,59.067764 
	C20.911800,59.507996 24.369719,56.968227 24.913513,61.808876 
z"/>
<path fill="#717171" opacity="1.000000" stroke="none" 
	d="
M19.273769,37.897041 
	C20.372616,37.891392 21.126106,37.689259 21.684000,37.933643 
	C22.869518,38.452961 23.953293,39.204544 25.078775,39.860916 
	C23.989050,40.555225 22.970842,41.444241 21.785952,41.879459 
	C20.909012,42.201565 19.739891,42.161797 18.838558,41.865124 
	C17.888063,41.552261 17.100935,40.743061 16.242432,40.150703 
	C17.108213,39.401432 17.973995,38.652161 19.273769,37.897041 
z"/>
<path fill="#6F6F6F" opacity="1.000000" stroke="none" 
	d="
M75.279160,13.320139 
	C74.666771,13.756697 73.995552,13.901334 72.813232,14.118574 
	C70.040031,14.079310 67.777847,13.969061 65.515846,13.855085 
	C63.566051,13.756840 62.044853,13.387678 64.561676,10.920027 
	C67.958382,10.864347 70.540222,10.902509 73.122070,10.940670 
	C73.821487,11.636519 74.520897,12.332369 75.279160,13.320139 
z"/>
<path fill="#D0EDCE" opacity="1.000000" stroke="none" 
	d="
M47.518261,54.057480 
	C47.918118,58.998436 47.932438,64.043503 47.941017,69.558029 
	C47.315437,69.382179 46.139191,68.714188 46.164433,68.095169 
	C46.354012,63.445210 46.780403,58.804909 47.518261,54.057480 
z"/>
<path fill="#D0EDCE" opacity="1.000000" stroke="none" 
	d="
M84.482956,75.002556 
	C85.126289,72.373512 86.111771,69.673943 87.414169,66.818588 
	C86.762428,69.419220 85.793770,72.175629 84.482956,75.002556 
z"/>
<path fill="#808080" opacity="1.000000" stroke="none" 
	d="
M72.941338,10.623075 
	C70.540222,10.902509 67.958382,10.864347 64.882347,10.752792 
	C67.178978,10.554761 69.969788,10.430121 72.941338,10.623075 
z"/>
<path fill="#D0EDCE" opacity="1.000000" stroke="none" 
	d="
M59.715630,41.526993 
	C58.858681,42.481468 57.783417,43.239422 56.351421,43.992672 
	C57.162228,43.102135 58.329769,42.216301 59.715630,41.526993 
z"/>
<path fill="#D0EDCE" opacity="1.000000" stroke="none" 
	d="
M77.988495,43.650658 
	C76.776833,43.462173 75.531342,42.955795 74.168152,42.114365 
	C75.351868,42.297134 76.653267,42.814949 77.988495,43.650658 
z"/>
<path fill="#D0EDCE" opacity="1.000000" stroke="none" 
	d="
M48.378204,71.872482 
	C49.331356,72.787384 50.158844,74.065041 50.940498,75.691650 
	C50.013954,74.772148 49.133244,73.503693 48.378204,71.872482 
z"/>
<path fill="#D0EDCE" opacity="1.000000" stroke="none" 
	d="
M72.006180,41.256950 
	C70.980446,41.638149 69.831223,41.739201 68.273743,41.673080 
	C69.204552,41.329536 70.543617,41.153168 72.006180,41.256950 
z"/>
<path fill="#D0EDCE" opacity="1.000000" stroke="none" 
	d="
M49.670605,49.989594 
	C49.762234,50.528824 49.570648,51.086052 49.124554,51.809441 
	C49.042492,51.319595 49.214939,50.663593 49.670605,49.989594 
z"/>
<path fill="#DDF5DC" opacity="1.000000" stroke="none" 
	d="
M59.490303,60.982216 
	C64.185272,62.771740 67.355247,61.262794 69.940659,57.645020 
	C70.584518,56.744057 71.621017,55.765575 72.621552,55.572823 
	C73.745117,55.356365 75.241196,55.707611 76.153511,56.382187 
	C76.561371,56.683762 76.320770,58.724133 75.722130,59.379898 
	C72.700523,62.689861 69.657860,66.032570 66.247238,68.920486 
	C62.987709,71.680473 61.655968,67.795593 59.946663,66.257729 
	C58.543438,64.995247 55.314262,63.383541 59.490303,60.982216 
z"/>
<path fill="#3A3A3A" opacity="1.000000" stroke="none" 
	d="
M10.737424,28.972988 
	C10.963515,30.073154 11.001360,30.777851 11.074190,31.840931 
	C10.805569,35.133404 10.275356,38.064777 10.240173,41.002083 
	C10.127557,50.403973 10.198352,59.808056 9.371793,69.193321 
	C9.371793,50.927380 9.371793,32.661446 9.371793,14.395507 
	C9.764255,14.394859 10.156715,14.394212 10.549177,14.393564 
	C10.549177,19.121550 10.549177,23.849535 10.737424,28.972988 
z"/>
<path fill="#404141" opacity="1.000000" stroke="none" 
	d="
M26.000179,72.146362 
	C20.932341,72.146156 16.361477,72.146156 11.790612,72.146156 
	C11.795268,71.819298 11.799923,71.492432 11.804579,71.165573 
	C21.272297,71.165573 30.740017,71.165573 40.207733,71.165573 
	C40.211971,71.492569 40.216206,71.819565 40.220444,72.146561 
	C35.646011,72.146561 31.071583,72.146561 26.000179,72.146362 
z"/>
</svg>