<svg xmlns="http://www.w3.org/2000/svg" width="21.75" height="24" viewBox="0 0 21.75 24"><g transform="translate(-3.75 -2.25)"><path d="M6.75,5.25H22.5a3,3,0,0,1,3,3V24a3,3,0,0,1-3,3H6.75a3,3,0,0,1-3-3V8.25A3,3,0,0,1,6.75,5.25ZM22.5,25.5A1.5,1.5,0,0,0,24,24V8.25a1.5,1.5,0,0,0-1.5-1.5H6.75a1.5,1.5,0,0,0-1.5,1.5V24a1.5,1.5,0,0,0,1.5,1.5Z" transform="translate(0 -0.75)" fill="#afafaf"/><path d="M24,8.25a.75.75,0,0,1-.75-.75V3a.75.75,0,0,1,1.5,0V7.5A.75.75,0,0,1,24,8.25Z" transform="translate(-4.875)" fill="#afafaf"/><path d="M12,8.25a.75.75,0,0,1-.75-.75V3a.75.75,0,0,1,1.5,0V7.5A.75.75,0,0,1,12,8.25Z" transform="translate(-1.875)" fill="#afafaf"/><path d="M24.75,15.75H4.5a.75.75,0,0,1,0-1.5H24.75a.75.75,0,0,1,0,1.5Z" transform="translate(0 -3)" fill="#afafaf"/></g></svg>