<svg xmlns="http://www.w3.org/2000/svg" width="15.177" height="8.892" viewBox="0 0 15.177 8.892"><g transform="translate(-97.607 -109.893)"><path d="M2.529,7.34l5.553,5.549A1.049,1.049,0,1,1,6.6,14.37L.305,8.083A1.047,1.047,0,0,1,.275,6.637L6.593.306A1.049,1.049,0,0,1,8.078,1.787Z" transform="translate(97.857 118.533) rotate(-90)" fill="#9a9a9a"/><path d="M7.336-.25a1.3,1.3,0,0,1,1.3,1.3,1.281,1.281,0,0,1-.382.913L2.883,7.34,8.26,12.712a1.3,1.3,0,0,1-1.838,1.836L.129,8.26A1.294,1.294,0,0,1,.09,6.468L.1,6.46,6.416.129A1.291,1.291,0,0,1,7.336-.25Zm.007,14.677a.8.8,0,0,0,.564-1.361L2.176,7.34,7.9,1.61a.785.785,0,0,0,.235-.56A.8.8,0,0,0,6.77.483L.456,6.809a.8.8,0,0,0,.026,1.1l6.292,6.287A.8.8,0,0,0,7.342,14.427Z" transform="translate(97.857 118.533) rotate(-90)" fill="#9a9a9a"/></g></svg>