<svg xmlns="http://www.w3.org/2000/svg" width="21.5" height="23.5" viewBox="0 0 21.5 23.5"><g transform="translate(-3.75 -2.25)"><path d="M6.722,5.25H22.278A2.965,2.965,0,0,1,25.25,8.2V23.6a2.965,2.965,0,0,1-2.972,2.95H6.722A2.965,2.965,0,0,1,3.75,23.6V8.2A2.965,2.965,0,0,1,6.722,5.25Zm15.556,19.8A1.463,1.463,0,0,0,23.75,23.6V8.2a1.463,1.463,0,0,0-1.472-1.45H6.722A1.463,1.463,0,0,0,5.25,8.2V23.6a1.463,1.463,0,0,0,1.472,1.45Z" transform="translate(0 -0.8)" fill="#cbcbcb"/><path d="M24,8.15a.75.75,0,0,1-.75-.75V3a.75.75,0,1,1,1.5,0V7.4A.75.75,0,0,1,24,8.15Z" transform="translate(-5.056)" fill="#cbcbcb"/><path d="M12,8.15a.75.75,0,0,1-.75-.75V3a.75.75,0,1,1,1.5,0V7.4A.75.75,0,0,1,12,8.15Z" transform="translate(-1.944)" fill="#cbcbcb"/><path d="M24.5,15.75H4.5a.75.75,0,0,1,0-1.5h20a.75.75,0,0,1,0,1.5Z" transform="translate(0 -3.2)" fill="#cbcbcb"/></g></svg>