<svg xmlns="http://www.w3.org/2000/svg" xmlns:xlink="http://www.w3.org/1999/xlink" width="53" height="53" viewBox="0 0 53 53"><defs><filter id="a" x="0" y="0" width="53" height="53" filterUnits="userSpaceOnUse"><feOffset input="SourceAlpha"/><feGaussianBlur stdDeviation="3" result="b"/><feFlood flood-opacity="0.059"/><feComposite operator="in" in2="b"/><feComposite in="SourceGraphic"/></filter></defs><g transform="translate(-231 -74)"><g transform="matrix(1, 0, 0, 1, 231, 74)" filter="url(#a)"><circle cx="17.5" cy="17.5" r="17.5" transform="translate(9 9)" fill="#fff"/></g><g transform="translate(245.9 88.5)"><path d="M21.5,19.045a1.818,1.818,0,0,1-1.818,1.818H3.318A1.818,1.818,0,0,1,1.5,19.045v-10A1.818,1.818,0,0,1,3.318,7.227H6.955L8.773,4.5h5.455l1.818,2.727h3.636A1.818,1.818,0,0,1,21.5,9.045Z" fill="#687bb9"/><path d="M19.526,17.263A3.763,3.763,0,1,1,15.763,13.5,3.763,3.763,0,0,1,19.526,17.263Z" transform="translate(-4.263 -3.697)" fill="#687bb9"/></g><circle cx="4" cy="4" r="4" transform="translate(253.5 98)" fill="#fff"/></g></svg>