<svg xmlns="http://www.w3.org/2000/svg" width="23.5" height="23.5" viewBox="0 0 23.5 23.5"><g transform="translate(-368.25 -1010.75)"><path d="M16.084,3.75h.679A11.1,11.1,0,0,1,27.249,14.236q0,.021,0,.041v.611A11.145,11.145,0,0,1,16.111,26.028h-.027a11.051,11.051,0,0,1-4.671-1.042L4.737,27.211a.75.75,0,0,1-.949-.949l2.225-6.676A11.143,11.143,0,0,1,16.084,3.75Zm.617,1.5h-.617A9.632,9.632,0,0,0,7.492,19.2a.75.75,0,0,1,.042.575L5.686,25.314l5.544-1.848a.75.75,0,0,1,.575.042,9.538,9.538,0,0,0,4.28,1.019h.025a9.649,9.649,0,0,0,9.641-9.637V14.3A9.6,9.6,0,0,0,16.7,5.25Z" transform="translate(364.5 1007)" fill="#cbcbcb"/><circle cx="1.5" cy="1.5" r="1.5" transform="translate(374.5 1021)" fill="#cbcbcb"/><circle cx="1.5" cy="1.5" r="1.5" transform="translate(379.5 1021)" fill="#cbcbcb"/><circle cx="1.5" cy="1.5" r="1.5" transform="translate(384.5 1020)" fill="#cbcbcb"/></g></svg>