<svg xmlns="http://www.w3.org/2000/svg" width="36" height="36" viewBox="0 0 36 36"><g transform="translate(-59 -515)"><circle cx="18" cy="18" r="18" transform="translate(59 515)" fill="#fff"/><g transform="translate(65.2 521)"><path d="M15.114,9.5A5.614,5.614,0,1,1,9.5,15.114,5.62,5.62,0,0,1,15.114,9.5Zm0,9.227A3.614,3.614,0,1,0,11.5,15.114,3.618,3.618,0,0,0,15.114,18.727Z" transform="translate(-3.464 -3.464)" fill="#faff68"/><path d="M18,4.345a1,1,0,0,1-1-1V1.5a1,1,0,1,1,2,0V3.345A1,1,0,0,1,18,4.345Z" transform="translate(-6.35)" fill="#faff68"/><path d="M18,34.345a1,1,0,0,1-1-1V31.5a1,1,0,1,1,2,0v1.845A1,1,0,0,1,18,34.345Z" transform="translate(-6.35 -11.546)" fill="#faff68"/><path d="M7.64,8.64a1,1,0,0,1-.707-.293l-1.31-1.31A1,1,0,0,1,7.037,5.623l1.31,1.31A1,1,0,0,1,7.64,8.64Z" transform="translate(-1.859 -1.859)" fill="#faff68"/><path d="M28.85,29.85a1,1,0,0,1-.707-.293l-1.31-1.31a1,1,0,0,1,1.414-1.414l1.31,1.31a1,1,0,0,1-.707,1.707Z" transform="translate(-10.022 -10.022)" fill="#faff68"/><path d="M3.345,19H1.5a1,1,0,1,1,0-2H3.345a1,1,0,1,1,0,2Z" transform="translate(0 -6.35)" fill="#faff68"/><path d="M33.345,19H31.5a1,1,0,1,1,0-2h1.845a1,1,0,0,1,0,2Z" transform="translate(-11.546 -6.35)" fill="#faff68"/><path d="M6.33,29.85a1,1,0,0,1-.707-1.707l1.31-1.31a1,1,0,0,1,1.414,1.414l-1.31,1.31A1,1,0,0,1,6.33,29.85Z" transform="translate(-1.859 -10.022)" fill="#faff68"/><path d="M27.54,8.64a1,1,0,0,1-.707-1.707l1.31-1.31a1,1,0,0,1,1.414,1.414l-1.31,1.31A1,1,0,0,1,27.54,8.64Z" transform="translate(-10.022 -1.859)" fill="#faff68"/></g></g></svg>