<svg xmlns="http://www.w3.org/2000/svg" width="28.8" height="35.5" viewBox="0 0 28.8 35.5"><g transform="translate(-5 -2)"><path d="M9.35,2h13.4a1,1,0,0,1,.707.293l10.05,10.05a1,1,0,0,1,.293.707v20.1a4.355,4.355,0,0,1-4.35,4.35H9.35A4.355,4.355,0,0,1,5,33.15V6.35A4.355,4.355,0,0,1,9.35,2ZM22.336,4H9.35A2.353,2.353,0,0,0,7,6.35v26.8A2.353,2.353,0,0,0,9.35,35.5h20.1a2.353,2.353,0,0,0,2.35-2.35V13.464Z" fill="#687bb9"/><path d="M31.05,14.05H21a1,1,0,0,1-1-1V3a1,1,0,0,1,2,0v9.05h9.05a1,1,0,0,1,0,2Z" transform="translate(1.75)" fill="#687bb9"/><path d="M23.55,23.5H13.5a1,1,0,0,1,0-2H23.55a1,1,0,0,1,0,2Z" transform="translate(0.875 2.275)" fill="#687bb9"/></g></svg>