<svg xmlns="http://www.w3.org/2000/svg" width="39.92" height="49.4" viewBox="0 0 39.92 49.4"><g transform="translate(-5 -2)"><path d="M10.74,2H29.7a1,1,0,0,1,.707.293l14.22,14.22a1,1,0,0,1,.293.707V45.66a5.747,5.747,0,0,1-5.74,5.74H10.74A5.747,5.747,0,0,1,5,45.66V7.74A5.746,5.746,0,0,1,10.74,2ZM29.286,4H10.74A3.744,3.744,0,0,0,7,7.74V45.66a3.744,3.744,0,0,0,3.74,3.74H39.18a3.744,3.744,0,0,0,3.74-3.74V17.634Z" fill="#afafaf"/><path d="M35.22,18.22H21a1,1,0,0,1-1-1V3a1,1,0,1,1,2,0V16.22H35.22a1,1,0,0,1,0,2Z" transform="translate(8.7)" fill="#afafaf"/><path d="M18,33.22a1,1,0,0,1-1-1V18a1,1,0,1,1,2,0V32.22A1,1,0,0,1,18,33.22Z" transform="translate(6.96 8.7)" fill="#afafaf"/><path d="M27.72,23.5H13.5a1,1,0,0,1,0-2H27.72a1,1,0,1,1,0,2Z" transform="translate(4.35 11.31)" fill="#afafaf"/></g></svg>