<svg xmlns="http://www.w3.org/2000/svg" width="36" height="36" viewBox="0 0 36 36"><g transform="translate(-59 -584)"><circle cx="18" cy="18" r="18" transform="translate(59 584)" fill="#fff"/><path d="M14.734,25.8c-.115,0-.232,0-.348-.005A11.172,11.172,0,0,1,13.7,3.5a1,1,0,0,1,.9,1.59,6.911,6.911,0,0,0,9.666,9.666,1,1,0,0,1,1.59.9A11.172,11.172,0,0,1,14.734,25.8ZM11.873,5.912A9.172,9.172,0,0,0,14.447,23.8c.1,0,.192,0,.287,0a9.12,9.12,0,0,0,8.716-6.314A8.913,8.913,0,0,1,11.873,5.912Z" transform="translate(62.537 587.028)" fill="#9fe7ff"/></g></svg>