<svg xmlns="http://www.w3.org/2000/svg" width="27.167" height="22.5" viewBox="0 0 27.167 22.5"><g transform="translate(-0.75 -3.75)"><path d="M24.833,26.25h-21A3.087,3.087,0,0,1,.75,23.167V10.333A3.087,3.087,0,0,1,3.833,7.25H8.1l2.111-3.166a.75.75,0,0,1,.624-.334h7a.75.75,0,0,1,.624.334L20.568,7.25h4.265a3.087,3.087,0,0,1,3.083,3.083V23.167A3.087,3.087,0,0,1,24.833,26.25Zm-21-17.5A1.585,1.585,0,0,0,2.25,10.333V23.167A1.585,1.585,0,0,0,3.833,24.75h21a1.585,1.585,0,0,0,1.583-1.583V10.333A1.585,1.585,0,0,0,24.833,8.75H20.167a.75.75,0,0,1-.624-.334L17.432,5.25h-6.2L9.124,8.416A.75.75,0,0,1,8.5,8.75Z" transform="translate(0)" fill="#afafaf"/><path d="M16.667,12.75a5.417,5.417,0,1,1-5.417,5.417A5.423,5.423,0,0,1,16.667,12.75Zm0,9.333a3.917,3.917,0,1,0-3.917-3.917A3.921,3.921,0,0,0,16.667,22.083Z" transform="translate(-2.333 -2)" fill="#afafaf"/></g></svg>