<svg xmlns="http://www.w3.org/2000/svg" width="23.5" height="23.5" viewBox="0 0 23.5 23.5"><g transform="translate(-2.25 -2.25)"><path d="M14,25.75A11.75,11.75,0,0,1,5.692,5.692,11.75,11.75,0,1,1,22.309,22.309,11.673,11.673,0,0,1,14,25.75Zm0-22A10.25,10.25,0,1,0,24.25,14,10.262,10.262,0,0,0,14,3.75Z" fill="#cbcbcb"/><path d="M22.4,18.55a.747.747,0,0,1-.335-.079l-4.4-2.2a.75.75,0,0,1-.415-.671V9a.75.75,0,0,1,1.5,0v6.136l3.985,1.993A.75.75,0,0,1,22.4,18.55Z" transform="translate(-4 -1.6)" fill="#cbcbcb"/></g></svg>