<svg xmlns="http://www.w3.org/2000/svg" width="48.5" height="57.2" viewBox="0 0 48.5 57.2"><g transform="translate(-3.75 -0.25)"><path d="M9.722,5.25H46.278a6.066,6.066,0,0,1,5.972,6.142V49.138a6.066,6.066,0,0,1-5.972,6.142H9.722A6.066,6.066,0,0,1,3.75,49.138V11.392A6.066,6.066,0,0,1,9.722,5.25ZM46.278,53.78a4.565,4.565,0,0,0,4.472-4.642V11.392A4.565,4.565,0,0,0,46.278,6.75H9.722A4.565,4.565,0,0,0,5.25,11.392V49.138A4.565,4.565,0,0,0,9.722,53.78Z" transform="translate(0 2.17)" fill="#687bb9"/><path d="M24,10.09a.75.75,0,0,1-.75-.75V3a.75.75,0,0,1,1.5,0V9.34A.75.75,0,0,1,24,10.09Z" transform="translate(14.444 -2)" fill="#687bb9"/><path d="M12,10.09a.75.75,0,0,1-.75-.75V3a.75.75,0,0,1,1.5,0V9.34A.75.75,0,0,1,12,10.09Z" transform="translate(5.556 -2)" fill="#687bb9"/><path d="M51.5,15.75H4.5a.75.75,0,0,1,0-1.5h47a.75.75,0,0,1,0,1.5Z" transform="translate(0 10.68)" fill="#687bb9"/></g></svg>