<svg xmlns="http://www.w3.org/2000/svg" width="23" height="23" viewBox="0 0 23 23"><g transform="translate(-0.5)"><g transform="translate(0.5)"><g transform="translate(14.664 14.658)"><path d="M334.172,330.6a3.943,3.943,0,1,0-3.943,3.946A3.937,3.937,0,0,0,334.172,330.6Z" transform="translate(-326.286 -326.652)" fill="#b8ecbc" fill-rule="evenodd"/></g><g transform="translate(5.134 7.327)"><path d="M126.322,163.351H115.3a.742.742,0,0,0-.741.741v8.459a.742.742,0,0,0,.741.741h9.027a3.953,3.953,0,0,1,2.731-2.47v-6.73A.743.743,0,0,0,126.322,163.351Zm-8.152,3.94h1.613v-1.614h2.06v1.614h1.613v2.062h-1.613v1.614h-2.06v-1.614h-1.613Z" transform="translate(-114.564 -163.351)" fill="#fff" fill-rule="evenodd"/></g><g transform="translate(8.741 9.654)"><path d="M199.978,218.7V216.64h-1.613v-1.614H196.3v1.614h-1.613V218.7H196.3v1.614h2.06V218.7Z" transform="translate(-194.692 -215.026)" fill="#ff9eb1" fill-rule="evenodd"/></g><path d="M72.156,72.071a.449.449,0,0,0,.318-.132h0a.45.45,0,1,0-.32.133Z" transform="translate(-68.501 -67.967)"/><path d="M22.4,15.716A11.374,11.374,0,0,0,11.883,0,11.327,11.327,0,0,0,5.461,1.981a.45.45,0,1,0,.509.741,10.487,10.487,0,0,1,16.4,8.647,10.378,10.378,0,0,1-.674,3.7,4.373,4.373,0,0,0-2.586-.843,4.424,4.424,0,0,0-.524.031V8.078a1.191,1.191,0,0,0-1.191-1.189H16.254V5.036a1.006,1.006,0,0,0-1.006-1H8.519a1.006,1.006,0,0,0-1.006,1V6.889H6.375A1.191,1.191,0,0,0,5.184,8.078V16.52a1.191,1.191,0,0,0,1.191,1.189h8.433a4.379,4.379,0,0,0,.741,3.473A10.475,10.475,0,0,1,3.23,5.458a.45.45,0,0,0-.743-.508A11.381,11.381,0,0,0,16.195,21.894a4.388,4.388,0,0,0,6.21-6.178ZM8.413,5.036a.107.107,0,0,1,.106-.106h6.729a.109.109,0,0,1,.106.106V6.889H8.413ZM6.375,16.811a.291.291,0,0,1-.291-.291V8.078a.291.291,0,0,1,.291-.291H17.392a.294.294,0,0,1,.291.291v6.384A4.415,4.415,0,0,0,15.1,16.811ZM19.107,22.1A3.489,3.489,0,1,1,22.6,18.612,3.5,3.5,0,0,1,19.107,22.1Z" transform="translate(-0.5)"/><path d="M190.429,206.641h-1.163v-1.164a.45.45,0,0,0-.45-.45h-2.06a.45.45,0,0,0-.45.45v1.164h-1.163a.45.45,0,0,0-.45.45v2.062a.45.45,0,0,0,.45.45h1.163v1.164a.45.45,0,0,0,.45.45h2.06a.45.45,0,0,0,.45-.45V209.6h1.163a.45.45,0,0,0,.45-.45v-2.062A.45.45,0,0,0,190.429,206.641Zm-.45,2.062h-1.163a.45.45,0,0,0-.45.45v1.164h-1.16v-1.164a.45.45,0,0,0-.45-.45h-1.163v-1.162h1.163a.45.45,0,0,0,.45-.45v-1.164h1.16v1.164a.45.45,0,0,0,.45.45h1.163Z" transform="translate(-176.403 -195.823)"/><path d="M371.956,379.008l-1.912,1.964-.618-.615a.45.45,0,0,0-.635.638l.941.936a.45.45,0,0,0,.318.131h0a.45.45,0,0,0,.319-.136l2.23-2.29a.45.45,0,1,0-.645-.628Z" transform="translate(-352.087 -361.864)"/></g></g></svg>